<?xml version="1.0" encoding="UTF-8" standalone="no"?>
<!DOCTYPE svg PUBLIC "-//W3C//DTD SVG 1.1//EN"
 "http://www.w3.org/Graphics/SVG/1.1/DTD/svg11.dtd">
<!-- Generated by graphviz version 2.40.1 (0)
 -->
<!-- Title: G Pages: 1 -->
<svg width="641pt" height="2137pt"
 viewBox="0.00 0.00 641.00 2137.00" xmlns="http://www.w3.org/2000/svg" xmlns:xlink="http://www.w3.org/1999/xlink">
<g id="graph0" class="graph" transform="scale(1 1) rotate(0) translate(36 2101)">
<title>G</title>
<polygon fill="#f7f7f7" stroke="transparent" points="-36,36 -36,-2101 605,-2101 605,36 -36,36"/>
<!-- appcategory -->
<g id="node1" class="node">
<title>appcategory</title>
<polygon fill="none" stroke="#000000" points="192,-1071.5 24,-1071.5 24,-849.5 192,-849.5 192,-1071.5"/>
<polygon fill="#d3d3d3" stroke="transparent" points="24,-1034.5 24,-1071.5 192,-1071.5 192,-1034.5 24,-1034.5"/>
<polygon fill="none" stroke="#000000" points="24,-1034.5 24,-1071.5 192,-1071.5 192,-1034.5 24,-1034.5"/>
<text text-anchor="start" x="77.5" y="-1049.3" font-family="Helvetica Neue" font-size="14.00" fill="#333333">Category</text>
<polygon fill="#ffffff" stroke="transparent" points="24,-997.5 24,-1034.5 192,-1034.5 192,-997.5 24,-997.5"/>
<polygon fill="none" stroke="#000000" points="24,-997.5 24,-1034.5 192,-1034.5 192,-997.5 24,-997.5"/>
<text text-anchor="start" x="35" y="-1012.3" font-family="Helvetica Neue" font-size="14.00" fill="#333333">id (integer)</text>
<polygon fill="#ffffff" stroke="transparent" points="24,-960.5 24,-997.5 192,-997.5 192,-960.5 24,-960.5"/>
<polygon fill="none" stroke="#000000" points="24,-960.5 24,-997.5 192,-997.5 192,-960.5 24,-960.5"/>
<text text-anchor="start" x="35" y="-975.3" font-family="Helvetica Neue" font-size="14.00" fill="#333333">name (string)</text>
<polygon fill="#ffffff" stroke="transparent" points="24,-923.5 24,-960.5 192,-960.5 192,-923.5 24,-923.5"/>
<polygon fill="none" stroke="#000000" points="24,-923.5 24,-960.5 192,-960.5 192,-923.5 24,-923.5"/>
<text text-anchor="start" x="35" y="-938.3" font-family="Helvetica Neue" font-size="14.00" fill="#333333">slug (string)</text>
<polygon fill="#ffffff" stroke="transparent" points="24,-886.5 24,-923.5 192,-923.5 192,-886.5 24,-886.5"/>
<polygon fill="none" stroke="#000000" points="24,-886.5 24,-923.5 192,-923.5 192,-886.5 24,-886.5"/>
<text text-anchor="start" x="35" y="-901.3" font-family="Helvetica Neue" font-size="14.00" fill="#333333">created_at (datetime)</text>
<polygon fill="#ffffff" stroke="transparent" points="24,-849.5 24,-886.5 192,-886.5 192,-849.5 24,-849.5"/>
<polygon fill="none" stroke="#000000" points="24,-849.5 24,-886.5 192,-886.5 192,-849.5 24,-849.5"/>
<text text-anchor="start" x="35" y="-864.3" font-family="Helvetica Neue" font-size="14.00" fill="#333333">updated_at (datetime)</text>
</g>
<!-- appproduct -->
<g id="node2" class="node">
<title>appproduct</title>
<polygon fill="none" stroke="#000000" points="550.5,-1053.5 382.5,-1053.5 382.5,-683.5 550.5,-683.5 550.5,-1053.5"/>
<polygon fill="#d3d3d3" stroke="transparent" points="382.5,-1016.5 382.5,-1053.5 550.5,-1053.5 550.5,-1016.5 382.5,-1016.5"/>
<polygon fill="none" stroke="#000000" points="382.5,-1016.5 382.5,-1053.5 550.5,-1053.5 550.5,-1016.5 382.5,-1016.5"/>
<text text-anchor="start" x="440.5" y="-1031.3" font-family="Helvetica Neue" font-size="14.00" fill="#333333">Product</text>
<polygon fill="#ffffff" stroke="transparent" points="382.5,-979.5 382.5,-1016.5 550.5,-1016.5 550.5,-979.5 382.5,-979.5"/>
<polygon fill="none" stroke="#000000" points="382.5,-979.5 382.5,-1016.5 550.5,-1016.5 550.5,-979.5 382.5,-979.5"/>
<text text-anchor="start" x="393.5" y="-994.3" font-family="Helvetica Neue" font-size="14.00" fill="#333333">id (integer)</text>
<polygon fill="#ffffff" stroke="transparent" points="382.5,-942.5 382.5,-979.5 550.5,-979.5 550.5,-942.5 382.5,-942.5"/>
<polygon fill="none" stroke="#000000" points="382.5,-942.5 382.5,-979.5 550.5,-979.5 550.5,-942.5 382.5,-942.5"/>
<text text-anchor="start" x="393.5" y="-957.3" font-family="Helvetica Neue" font-size="14.00" fill="#333333">name (string)</text>
<polygon fill="#ffffff" stroke="transparent" points="382.5,-905.5 382.5,-942.5 550.5,-942.5 550.5,-905.5 382.5,-905.5"/>
<polygon fill="none" stroke="#000000" points="382.5,-905.5 382.5,-942.5 550.5,-942.5 550.5,-905.5 382.5,-905.5"/>
<text text-anchor="start" x="393.5" y="-920.3" font-family="Helvetica Neue" font-size="14.00" fill="#333333">slug (string)</text>
<polygon fill="#ffffff" stroke="transparent" points="382.5,-868.5 382.5,-905.5 550.5,-905.5 550.5,-868.5 382.5,-868.5"/>
<polygon fill="none" stroke="#000000" points="382.5,-868.5 382.5,-905.5 550.5,-905.5 550.5,-868.5 382.5,-868.5"/>
<text text-anchor="start" x="393.5" y="-883.3" font-family="Helvetica Neue" font-size="14.00" fill="#333333">details (string)</text>
<polygon fill="#ffffff" stroke="transparent" points="382.5,-831.5 382.5,-868.5 550.5,-868.5 550.5,-831.5 382.5,-831.5"/>
<polygon fill="none" stroke="#000000" points="382.5,-831.5 382.5,-868.5 550.5,-868.5 550.5,-831.5 382.5,-831.5"/>
<text text-anchor="start" x="393.5" y="-846.3" font-family="Helvetica Neue" font-size="14.00" fill="#333333">price (integer)</text>
<polygon fill="#ffffff" stroke="transparent" points="382.5,-794.5 382.5,-831.5 550.5,-831.5 550.5,-794.5 382.5,-794.5"/>
<polygon fill="none" stroke="#000000" points="382.5,-794.5 382.5,-831.5 550.5,-831.5 550.5,-794.5 382.5,-794.5"/>
<text text-anchor="start" x="393.5" y="-809.3" font-family="Helvetica Neue" font-size="14.00" fill="#333333">description (text)</text>
<polygon fill="#ffffff" stroke="transparent" points="382.5,-757.5 382.5,-794.5 550.5,-794.5 550.5,-757.5 382.5,-757.5"/>
<polygon fill="none" stroke="#000000" points="382.5,-757.5 382.5,-794.5 550.5,-794.5 550.5,-757.5 382.5,-757.5"/>
<text text-anchor="start" x="393.5" y="-772.3" font-family="Helvetica Neue" font-size="14.00" fill="#333333">featured (boolean)</text>
<polygon fill="#ffffff" stroke="transparent" points="382.5,-720.5 382.5,-757.5 550.5,-757.5 550.5,-720.5 382.5,-720.5"/>
<polygon fill="none" stroke="#000000" points="382.5,-720.5 382.5,-757.5 550.5,-757.5 550.5,-720.5 382.5,-720.5"/>
<text text-anchor="start" x="393.5" y="-735.3" font-family="Helvetica Neue" font-size="14.00" fill="#333333">created_at (datetime)</text>
<polygon fill="#ffffff" stroke="transparent" points="382.5,-683.5 382.5,-720.5 550.5,-720.5 550.5,-683.5 382.5,-683.5"/>
<polygon fill="none" stroke="#000000" points="382.5,-683.5 382.5,-720.5 550.5,-720.5 550.5,-683.5 382.5,-683.5"/>
<text text-anchor="start" x="393.5" y="-698.3" font-family="Helvetica Neue" font-size="14.00" fill="#333333">updated_at (datetime)</text>
</g>
<!-- appcategory&#45;&gt;appproduct -->
<g id="edge1" class="edge">
<title>appcategory&#45;&gt;appproduct</title>
<path fill="none" stroke="#003049" stroke-width="1.8" d="M192.0523,-938.9301C246.1323,-925.0518 316.4985,-906.9941 372.4401,-892.6381"/>
<polygon fill="#003049" stroke="#003049" stroke-width="1.8" points="373.5378,-895.9699 382.3539,-890.094 371.7977,-889.1896 373.5378,-895.9699"/>
<text text-anchor="middle" x="290" y="-917.3" font-family="Helvetica Neue" font-size="14.00" fill="#000000"> </text>
<text text-anchor="middle" x="335.2462" y="-934.5841" font-family="Helvetica Neue" font-size="14.00" fill="#000000">BelongsToMany</text>
<text text-anchor="middle" x="335.2462" y="-919.5841" font-family="Helvetica Neue" font-size="14.00" fill="#000000">products</text>
</g>
<!-- appproduct&#45;&gt;appcategory -->
<g id="edge4" class="edge">
<title>appproduct&#45;&gt;appcategory</title>
<path fill="none" stroke="#003049" stroke-width="1.8" d="M382.4768,-874.1486C336.1794,-877.261 288,-880.5 288,-880.5 288,-880.5 245.3351,-899.4622 201.5485,-918.9229"/>
<polygon fill="#003049" stroke="#003049" stroke-width="1.8" points="199.9194,-915.8168 192.2028,-923.0765 202.7624,-922.2134 199.9194,-915.8168"/>
<text text-anchor="middle" x="290" y="-884.3" font-family="Helvetica Neue" font-size="14.00" fill="#000000"> </text>
<text text-anchor="middle" x="235.0422" y="-869.2972" font-family="Helvetica Neue" font-size="14.00" fill="#000000">BelongsToMany</text>
<text text-anchor="middle" x="235.0422" y="-854.2972" font-family="Helvetica Neue" font-size="14.00" fill="#000000">categories</text>
</g>
<!-- apporder -->
<g id="node3" class="node">
<title>apporder</title>
<polygon fill="none" stroke="#000000" points="216,-777 0,-777 0,0 216,0 216,-777"/>
<polygon fill="#d3d3d3" stroke="transparent" points="0,-739.5 0,-776.5 216,-776.5 216,-739.5 0,-739.5"/>
<polygon fill="none" stroke="#000000" points="0,-739.5 0,-776.5 216,-776.5 216,-739.5 0,-739.5"/>
<text text-anchor="start" x="88" y="-754.3" font-family="Helvetica Neue" font-size="14.00" fill="#333333">Order</text>
<polygon fill="#ffffff" stroke="transparent" points="0,-702.5 0,-739.5 216,-739.5 216,-702.5 0,-702.5"/>
<polygon fill="none" stroke="#000000" points="0,-702.5 0,-739.5 216,-739.5 216,-702.5 0,-702.5"/>
<text text-anchor="start" x="11" y="-717.3" font-family="Helvetica Neue" font-size="14.00" fill="#333333">id (integer)</text>
<polygon fill="#ffffff" stroke="transparent" points="0,-665.5 0,-702.5 216,-702.5 216,-665.5 0,-665.5"/>
<polygon fill="none" stroke="#000000" points="0,-665.5 0,-702.5 216,-702.5 216,-665.5 0,-665.5"/>
<text text-anchor="start" x="11" y="-680.3" font-family="Helvetica Neue" font-size="14.00" fill="#333333">user_id (bigint)</text>
<polygon fill="#ffffff" stroke="transparent" points="0,-628.5 0,-665.5 216,-665.5 216,-628.5 0,-628.5"/>
<polygon fill="none" stroke="#000000" points="0,-628.5 0,-665.5 216,-665.5 216,-628.5 0,-628.5"/>
<text text-anchor="start" x="11" y="-643.3" font-family="Helvetica Neue" font-size="14.00" fill="#333333">billing_email (string)</text>
<polygon fill="#ffffff" stroke="transparent" points="0,-591.5 0,-628.5 216,-628.5 216,-591.5 0,-591.5"/>
<polygon fill="none" stroke="#000000" points="0,-591.5 0,-628.5 216,-628.5 216,-591.5 0,-591.5"/>
<text text-anchor="start" x="11" y="-606.3" font-family="Helvetica Neue" font-size="14.00" fill="#333333">billing_name (string)</text>
<polygon fill="#ffffff" stroke="transparent" points="0,-554.5 0,-591.5 216,-591.5 216,-554.5 0,-554.5"/>
<polygon fill="none" stroke="#000000" points="0,-554.5 0,-591.5 216,-591.5 216,-554.5 0,-554.5"/>
<text text-anchor="start" x="11" y="-569.3" font-family="Helvetica Neue" font-size="14.00" fill="#333333">billing_address (string)</text>
<polygon fill="#ffffff" stroke="transparent" points="0,-517.5 0,-554.5 216,-554.5 216,-517.5 0,-517.5"/>
<polygon fill="none" stroke="#000000" points="0,-517.5 0,-554.5 216,-554.5 216,-517.5 0,-517.5"/>
<text text-anchor="start" x="11" y="-532.3" font-family="Helvetica Neue" font-size="14.00" fill="#333333">billing_city (string)</text>
<polygon fill="#ffffff" stroke="transparent" points="0,-480.5 0,-517.5 216,-517.5 216,-480.5 0,-480.5"/>
<polygon fill="none" stroke="#000000" points="0,-480.5 0,-517.5 216,-517.5 216,-480.5 0,-480.5"/>
<text text-anchor="start" x="11" y="-495.3" font-family="Helvetica Neue" font-size="14.00" fill="#333333">billing_province (string)</text>
<polygon fill="#ffffff" stroke="transparent" points="0,-443.5 0,-480.5 216,-480.5 216,-443.5 0,-443.5"/>
<polygon fill="none" stroke="#000000" points="0,-443.5 0,-480.5 216,-480.5 216,-443.5 0,-443.5"/>
<text text-anchor="start" x="11" y="-458.3" font-family="Helvetica Neue" font-size="14.00" fill="#333333">billing_postalcode (string)</text>
<polygon fill="#ffffff" stroke="transparent" points="0,-406.5 0,-443.5 216,-443.5 216,-406.5 0,-406.5"/>
<polygon fill="none" stroke="#000000" points="0,-406.5 0,-443.5 216,-443.5 216,-406.5 0,-406.5"/>
<text text-anchor="start" x="11" y="-421.3" font-family="Helvetica Neue" font-size="14.00" fill="#333333">billing_phone (string)</text>
<polygon fill="#ffffff" stroke="transparent" points="0,-369.5 0,-406.5 216,-406.5 216,-369.5 0,-369.5"/>
<polygon fill="none" stroke="#000000" points="0,-369.5 0,-406.5 216,-406.5 216,-369.5 0,-369.5"/>
<text text-anchor="start" x="11" y="-384.3" font-family="Helvetica Neue" font-size="14.00" fill="#333333">billing_name_on_card (string)</text>
<polygon fill="#ffffff" stroke="transparent" points="0,-332.5 0,-369.5 216,-369.5 216,-332.5 0,-332.5"/>
<polygon fill="none" stroke="#000000" points="0,-332.5 0,-369.5 216,-369.5 216,-332.5 0,-332.5"/>
<text text-anchor="start" x="11" y="-347.3" font-family="Helvetica Neue" font-size="14.00" fill="#333333">billing_discount (integer)</text>
<polygon fill="#ffffff" stroke="transparent" points="0,-295.5 0,-332.5 216,-332.5 216,-295.5 0,-295.5"/>
<polygon fill="none" stroke="#000000" points="0,-295.5 0,-332.5 216,-332.5 216,-295.5 0,-295.5"/>
<text text-anchor="start" x="11" y="-310.3" font-family="Helvetica Neue" font-size="14.00" fill="#333333">billing_discount_code (string)</text>
<polygon fill="#ffffff" stroke="transparent" points="0,-258.5 0,-295.5 216,-295.5 216,-258.5 0,-258.5"/>
<polygon fill="none" stroke="#000000" points="0,-258.5 0,-295.5 216,-295.5 216,-258.5 0,-258.5"/>
<text text-anchor="start" x="11" y="-273.3" font-family="Helvetica Neue" font-size="14.00" fill="#333333">billing_subtotal (integer)</text>
<polygon fill="#ffffff" stroke="transparent" points="0,-221.5 0,-258.5 216,-258.5 216,-221.5 0,-221.5"/>
<polygon fill="none" stroke="#000000" points="0,-221.5 0,-258.5 216,-258.5 216,-221.5 0,-221.5"/>
<text text-anchor="start" x="11" y="-236.3" font-family="Helvetica Neue" font-size="14.00" fill="#333333">billing_tax (integer)</text>
<polygon fill="#ffffff" stroke="transparent" points="0,-184.5 0,-221.5 216,-221.5 216,-184.5 0,-184.5"/>
<polygon fill="none" stroke="#000000" points="0,-184.5 0,-221.5 216,-221.5 216,-184.5 0,-184.5"/>
<text text-anchor="start" x="11" y="-199.3" font-family="Helvetica Neue" font-size="14.00" fill="#333333">billing_total (integer)</text>
<polygon fill="#ffffff" stroke="transparent" points="0,-147.5 0,-184.5 216,-184.5 216,-147.5 0,-147.5"/>
<polygon fill="none" stroke="#000000" points="0,-147.5 0,-184.5 216,-184.5 216,-147.5 0,-147.5"/>
<text text-anchor="start" x="11" y="-162.3" font-family="Helvetica Neue" font-size="14.00" fill="#333333">payment_gateway (string)</text>
<polygon fill="#ffffff" stroke="transparent" points="0,-110.5 0,-147.5 216,-147.5 216,-110.5 0,-110.5"/>
<polygon fill="none" stroke="#000000" points="0,-110.5 0,-147.5 216,-147.5 216,-110.5 0,-110.5"/>
<text text-anchor="start" x="11" y="-125.3" font-family="Helvetica Neue" font-size="14.00" fill="#333333">shipped (boolean)</text>
<polygon fill="#ffffff" stroke="transparent" points="0,-73.5 0,-110.5 216,-110.5 216,-73.5 0,-73.5"/>
<polygon fill="none" stroke="#000000" points="0,-73.5 0,-110.5 216,-110.5 216,-73.5 0,-73.5"/>
<text text-anchor="start" x="11" y="-88.3" font-family="Helvetica Neue" font-size="14.00" fill="#333333">error (string)</text>
<polygon fill="#ffffff" stroke="transparent" points="0,-36.5 0,-73.5 216,-73.5 216,-36.5 0,-36.5"/>
<polygon fill="none" stroke="#000000" points="0,-36.5 0,-73.5 216,-73.5 216,-36.5 0,-36.5"/>
<text text-anchor="start" x="11" y="-51.3" font-family="Helvetica Neue" font-size="14.00" fill="#333333">created_at (datetime)</text>
<polygon fill="#ffffff" stroke="transparent" points="0,.5 0,-36.5 216,-36.5 216,.5 0,.5"/>
<polygon fill="none" stroke="#000000" points="0,.5 0,-36.5 216,-36.5 216,.5 0,.5"/>
<text text-anchor="start" x="11" y="-14.3" font-family="Helvetica Neue" font-size="14.00" fill="#333333">updated_at (datetime)</text>
</g>
<!-- apporder&#45;&gt;appproduct -->
<g id="edge3" class="edge">
<title>apporder&#45;&gt;appproduct</title>
<path fill="none" stroke="#003049" stroke-width="1.8" d="M216.0978,-513.635C256.1495,-559.9992 292,-601.5 292,-601.5 292,-601.5 334.0224,-665.7979 376.8239,-731.2879"/>
<polygon fill="#003049" stroke="#003049" stroke-width="1.8" points="373.9162,-733.2365 382.3168,-739.6925 379.7758,-729.4069 373.9162,-733.2365"/>
<text text-anchor="middle" x="290" y="-605.3" font-family="Helvetica Neue" font-size="14.00" fill="#000000"> </text>
<text text-anchor="middle" x="355.6514" y="-636.5975" font-family="Helvetica Neue" font-size="14.00" fill="#000000">BelongsToMany</text>
<text text-anchor="middle" x="355.6514" y="-621.5975" font-family="Helvetica Neue" font-size="14.00" fill="#000000">products</text>
</g>
<!-- appuser -->
<g id="node4" class="node">
<title>appuser</title>
<polygon fill="none" stroke="#000000" points="569,-597.5 364,-597.5 364,-153.5 569,-153.5 569,-597.5"/>
<polygon fill="#d3d3d3" stroke="transparent" points="364.5,-560.5 364.5,-597.5 569.5,-597.5 569.5,-560.5 364.5,-560.5"/>
<polygon fill="none" stroke="#000000" points="364.5,-560.5 364.5,-597.5 569.5,-597.5 569.5,-560.5 364.5,-560.5"/>
<text text-anchor="start" x="451" y="-575.3" font-family="Helvetica Neue" font-size="14.00" fill="#333333">User</text>
<polygon fill="#ffffff" stroke="transparent" points="364.5,-523.5 364.5,-560.5 569.5,-560.5 569.5,-523.5 364.5,-523.5"/>
<polygon fill="none" stroke="#000000" points="364.5,-523.5 364.5,-560.5 569.5,-560.5 569.5,-523.5 364.5,-523.5"/>
<text text-anchor="start" x="375.5" y="-538.3" font-family="Helvetica Neue" font-size="14.00" fill="#333333">id (bigint)</text>
<polygon fill="#ffffff" stroke="transparent" points="364.5,-486.5 364.5,-523.5 569.5,-523.5 569.5,-486.5 364.5,-486.5"/>
<polygon fill="none" stroke="#000000" points="364.5,-486.5 364.5,-523.5 569.5,-523.5 569.5,-486.5 364.5,-486.5"/>
<text text-anchor="start" x="375.5" y="-501.3" font-family="Helvetica Neue" font-size="14.00" fill="#333333">role_id (bigint)</text>
<polygon fill="#ffffff" stroke="transparent" points="364.5,-449.5 364.5,-486.5 569.5,-486.5 569.5,-449.5 364.5,-449.5"/>
<polygon fill="none" stroke="#000000" points="364.5,-449.5 364.5,-486.5 569.5,-486.5 569.5,-449.5 364.5,-449.5"/>
<text text-anchor="start" x="375.5" y="-464.3" font-family="Helvetica Neue" font-size="14.00" fill="#333333">name (string)</text>
<polygon fill="#ffffff" stroke="transparent" points="364.5,-412.5 364.5,-449.5 569.5,-449.5 569.5,-412.5 364.5,-412.5"/>
<polygon fill="none" stroke="#000000" points="364.5,-412.5 364.5,-449.5 569.5,-449.5 569.5,-412.5 364.5,-412.5"/>
<text text-anchor="start" x="375.5" y="-427.3" font-family="Helvetica Neue" font-size="14.00" fill="#333333">email (string)</text>
<polygon fill="#ffffff" stroke="transparent" points="364.5,-375.5 364.5,-412.5 569.5,-412.5 569.5,-375.5 364.5,-375.5"/>
<polygon fill="none" stroke="#000000" points="364.5,-375.5 364.5,-412.5 569.5,-412.5 569.5,-375.5 364.5,-375.5"/>
<text text-anchor="start" x="375.5" y="-390.3" font-family="Helvetica Neue" font-size="14.00" fill="#333333">avatar (string)</text>
<polygon fill="#ffffff" stroke="transparent" points="364.5,-338.5 364.5,-375.5 569.5,-375.5 569.5,-338.5 364.5,-338.5"/>
<polygon fill="none" stroke="#000000" points="364.5,-338.5 364.5,-375.5 569.5,-375.5 569.5,-338.5 364.5,-338.5"/>
<text text-anchor="start" x="375.5" y="-353.3" font-family="Helvetica Neue" font-size="14.00" fill="#333333">email_verified_at (datetime)</text>
<polygon fill="#ffffff" stroke="transparent" points="364.5,-301.5 364.5,-338.5 569.5,-338.5 569.5,-301.5 364.5,-301.5"/>
<polygon fill="none" stroke="#000000" points="364.5,-301.5 364.5,-338.5 569.5,-338.5 569.5,-301.5 364.5,-301.5"/>
<text text-anchor="start" x="375.5" y="-316.3" font-family="Helvetica Neue" font-size="14.00" fill="#333333">password (string)</text>
<polygon fill="#ffffff" stroke="transparent" points="364.5,-264.5 364.5,-301.5 569.5,-301.5 569.5,-264.5 364.5,-264.5"/>
<polygon fill="none" stroke="#000000" points="364.5,-264.5 364.5,-301.5 569.5,-301.5 569.5,-264.5 364.5,-264.5"/>
<text text-anchor="start" x="375.5" y="-279.3" font-family="Helvetica Neue" font-size="14.00" fill="#333333">remember_token (string)</text>
<polygon fill="#ffffff" stroke="transparent" points="364.5,-227.5 364.5,-264.5 569.5,-264.5 569.5,-227.5 364.5,-227.5"/>
<polygon fill="none" stroke="#000000" points="364.5,-227.5 364.5,-264.5 569.5,-264.5 569.5,-227.5 364.5,-227.5"/>
<text text-anchor="start" x="375.5" y="-242.3" font-family="Helvetica Neue" font-size="14.00" fill="#333333">settings (text)</text>
<polygon fill="#ffffff" stroke="transparent" points="364.5,-190.5 364.5,-227.5 569.5,-227.5 569.5,-190.5 364.5,-190.5"/>
<polygon fill="none" stroke="#000000" points="364.5,-190.5 364.5,-227.5 569.5,-227.5 569.5,-190.5 364.5,-190.5"/>
<text text-anchor="start" x="375.5" y="-205.3" font-family="Helvetica Neue" font-size="14.00" fill="#333333">created_at (datetime)</text>
<polygon fill="#ffffff" stroke="transparent" points="364.5,-153.5 364.5,-190.5 569.5,-190.5 569.5,-153.5 364.5,-153.5"/>
<polygon fill="none" stroke="#000000" points="364.5,-153.5 364.5,-190.5 569.5,-190.5 569.5,-153.5 364.5,-153.5"/>
<text text-anchor="start" x="375.5" y="-168.3" font-family="Helvetica Neue" font-size="14.00" fill="#333333">updated_at (datetime)</text>
</g>
<!-- apporder&#45;&gt;appuser -->
<g id="edge2" class="edge">
<title>apporder:user_id&#45;&gt;appuser:id</title>
<path fill="none" stroke="#f77f00" stroke-width="1.8" d="M219.871,-675.0912C234.8262,-638.7419 288,-509.5 288,-509.5 288,-509.5 292,-509.5 292,-509.5 292,-509.5 343.6138,-532.9932 359.7431,-540.3348"/>
<polygon fill="#f77f00" stroke="#f77f00" stroke-width="1.8" points="219.8049,-675.2521 211.8385,-682.7878 217.9025,-679.8761 216,-684.5 216,-684.5 216,-684.5 217.9025,-679.8761 220.1615,-686.2122 219.8049,-675.2521 219.8049,-675.2521"/>
<polygon fill="#f77f00" stroke="#f77f00" stroke-width="1.8" points="365.6613,-537.5349 361.5184,-546.6365 359.6981,-545.8079 363.841,-536.7064 365.6613,-537.5349"/>
<polyline fill="none" stroke="#f77f00" stroke-width="1.8" points="364.5,-542.5 359.9492,-540.4286 "/>
<text text-anchor="middle" x="290" y="-513.3" font-family="Helvetica Neue" font-size="14.00" fill="#000000"> </text>
<text text-anchor="middle" x="303.3563" y="-544.8298" font-family="Helvetica Neue" font-size="14.00" fill="#000000">BelongsTo</text>
<text text-anchor="middle" x="303.3563" y="-529.8298" font-family="Helvetica Neue" font-size="14.00" fill="#000000">user</text>
</g>
<!-- appuser&#45;&gt;apporder -->
<g id="edge5" class="edge">
<title>appuser:id&#45;&gt;apporder:user_id</title>
<path fill="none" stroke="#fcbf49" stroke-width="1.8" d="M364.5,-542.5C364.5,-542.5 292,-622.5 292,-622.5 292,-622.5 243.265,-662.2575 223.8471,-678.0984"/>
<polygon fill="#fcbf49" stroke="#fcbf49" stroke-width="1.8" points="223.7487,-678.1787 213.1554,-681.0131 219.8743,-681.3393 216,-684.5 216,-684.5 216,-684.5 219.8743,-681.3393 218.8446,-687.9869 223.7487,-678.1787 223.7487,-678.1787"/>
<text text-anchor="middle" x="290" y="-628.3" font-family="Helvetica Neue" font-size="14.00" fill="#000000"> </text>
<text text-anchor="middle" x="329.7184" y="-603.8866" font-family="Helvetica Neue" font-size="14.00" fill="#000000">HasMany</text>
<text text-anchor="middle" x="329.7184" y="-588.8866" font-family="Helvetica Neue" font-size="14.00" fill="#000000">orders</text>
</g>
<!-- appcategoryproduct -->
<g id="node5" class="node">
<title>appcategoryproduct</title>
<polygon fill="none" stroke="#000000" points="192,-1365.5 24,-1365.5 24,-1143.5 192,-1143.5 192,-1365.5"/>
<polygon fill="#d3d3d3" stroke="transparent" points="24,-1328.5 24,-1365.5 192,-1365.5 192,-1328.5 24,-1328.5"/>
<polygon fill="none" stroke="#000000" points="24,-1328.5 24,-1365.5 192,-1365.5 192,-1328.5 24,-1328.5"/>
<text text-anchor="start" x="52" y="-1343.3" font-family="Helvetica Neue" font-size="14.00" fill="#333333">CategoryProduct</text>
<polygon fill="#ffffff" stroke="transparent" points="24,-1291.5 24,-1328.5 192,-1328.5 192,-1291.5 24,-1291.5"/>
<polygon fill="none" stroke="#000000" points="24,-1291.5 24,-1328.5 192,-1328.5 192,-1291.5 24,-1291.5"/>
<text text-anchor="start" x="35" y="-1306.3" font-family="Helvetica Neue" font-size="14.00" fill="#333333">id (integer)</text>
<polygon fill="#ffffff" stroke="transparent" points="24,-1254.5 24,-1291.5 192,-1291.5 192,-1254.5 24,-1254.5"/>
<polygon fill="none" stroke="#000000" points="24,-1254.5 24,-1291.5 192,-1291.5 192,-1254.5 24,-1254.5"/>
<text text-anchor="start" x="35" y="-1269.3" font-family="Helvetica Neue" font-size="14.00" fill="#333333">product_id (integer)</text>
<polygon fill="#ffffff" stroke="transparent" points="24,-1217.5 24,-1254.5 192,-1254.5 192,-1217.5 24,-1217.5"/>
<polygon fill="none" stroke="#000000" points="24,-1217.5 24,-1254.5 192,-1254.5 192,-1217.5 24,-1217.5"/>
<text text-anchor="start" x="35" y="-1232.3" font-family="Helvetica Neue" font-size="14.00" fill="#333333">category_id (integer)</text>
<polygon fill="#ffffff" stroke="transparent" points="24,-1180.5 24,-1217.5 192,-1217.5 192,-1180.5 24,-1180.5"/>
<polygon fill="none" stroke="#000000" points="24,-1180.5 24,-1217.5 192,-1217.5 192,-1180.5 24,-1180.5"/>
<text text-anchor="start" x="35" y="-1195.3" font-family="Helvetica Neue" font-size="14.00" fill="#333333">created_at (datetime)</text>
<polygon fill="#ffffff" stroke="transparent" points="24,-1143.5 24,-1180.5 192,-1180.5 192,-1143.5 24,-1143.5"/>
<polygon fill="none" stroke="#000000" points="24,-1143.5 24,-1180.5 192,-1180.5 192,-1143.5 24,-1143.5"/>
<text text-anchor="start" x="35" y="-1158.3" font-family="Helvetica Neue" font-size="14.00" fill="#333333">updated_at (datetime)</text>
</g>
<!-- appcoupon -->
<g id="node6" class="node">
<title>appcoupon</title>
<polygon fill="none" stroke="#000000" points="192,-1733.5 24,-1733.5 24,-1437.5 192,-1437.5 192,-1733.5"/>
<polygon fill="#d3d3d3" stroke="transparent" points="24,-1696.5 24,-1733.5 192,-1733.5 192,-1696.5 24,-1696.5"/>
<polygon fill="none" stroke="#000000" points="24,-1696.5 24,-1733.5 192,-1733.5 192,-1696.5 24,-1696.5"/>
<text text-anchor="start" x="82" y="-1711.3" font-family="Helvetica Neue" font-size="14.00" fill="#333333">Coupon</text>
<polygon fill="#ffffff" stroke="transparent" points="24,-1659.5 24,-1696.5 192,-1696.5 192,-1659.5 24,-1659.5"/>
<polygon fill="none" stroke="#000000" points="24,-1659.5 24,-1696.5 192,-1696.5 192,-1659.5 24,-1659.5"/>
<text text-anchor="start" x="35" y="-1674.3" font-family="Helvetica Neue" font-size="14.00" fill="#333333">id (integer)</text>
<polygon fill="#ffffff" stroke="transparent" points="24,-1622.5 24,-1659.5 192,-1659.5 192,-1622.5 24,-1622.5"/>
<polygon fill="none" stroke="#000000" points="24,-1622.5 24,-1659.5 192,-1659.5 192,-1622.5 24,-1622.5"/>
<text text-anchor="start" x="35" y="-1637.3" font-family="Helvetica Neue" font-size="14.00" fill="#333333">code (string)</text>
<polygon fill="#ffffff" stroke="transparent" points="24,-1585.5 24,-1622.5 192,-1622.5 192,-1585.5 24,-1585.5"/>
<polygon fill="none" stroke="#000000" points="24,-1585.5 24,-1622.5 192,-1622.5 192,-1585.5 24,-1585.5"/>
<text text-anchor="start" x="35" y="-1600.3" font-family="Helvetica Neue" font-size="14.00" fill="#333333">type (string)</text>
<polygon fill="#ffffff" stroke="transparent" points="24,-1548.5 24,-1585.5 192,-1585.5 192,-1548.5 24,-1548.5"/>
<polygon fill="none" stroke="#000000" points="24,-1548.5 24,-1585.5 192,-1585.5 192,-1548.5 24,-1548.5"/>
<text text-anchor="start" x="35" y="-1563.3" font-family="Helvetica Neue" font-size="14.00" fill="#333333">value (integer)</text>
<polygon fill="#ffffff" stroke="transparent" points="24,-1511.5 24,-1548.5 192,-1548.5 192,-1511.5 24,-1511.5"/>
<polygon fill="none" stroke="#000000" points="24,-1511.5 24,-1548.5 192,-1548.5 192,-1511.5 24,-1511.5"/>
<text text-anchor="start" x="35" y="-1526.3" font-family="Helvetica Neue" font-size="14.00" fill="#333333">percent_off (integer)</text>
<polygon fill="#ffffff" stroke="transparent" points="24,-1474.5 24,-1511.5 192,-1511.5 192,-1474.5 24,-1474.5"/>
<polygon fill="none" stroke="#000000" points="24,-1474.5 24,-1511.5 192,-1511.5 192,-1474.5 24,-1474.5"/>
<text text-anchor="start" x="35" y="-1489.3" font-family="Helvetica Neue" font-size="14.00" fill="#333333">created_at (datetime)</text>
<polygon fill="#ffffff" stroke="transparent" points="24,-1437.5 24,-1474.5 192,-1474.5 192,-1437.5 24,-1437.5"/>
<polygon fill="none" stroke="#000000" points="24,-1437.5 24,-1474.5 192,-1474.5 192,-1437.5 24,-1437.5"/>
<text text-anchor="start" x="35" y="-1452.3" font-family="Helvetica Neue" font-size="14.00" fill="#333333">updated_at (datetime)</text>
</g>
<!-- apporderproduct -->
<g id="node7" class="node">
<title>apporderproduct</title>
<polygon fill="none" stroke="#000000" points="192,-2065 24,-2065 24,-1806 192,-1806 192,-2065"/>
<polygon fill="#d3d3d3" stroke="transparent" points="24,-2027.5 24,-2064.5 192,-2064.5 192,-2027.5 24,-2027.5"/>
<polygon fill="none" stroke="#000000" points="24,-2027.5 24,-2064.5 192,-2064.5 192,-2027.5 24,-2027.5"/>
<text text-anchor="start" x="62" y="-2042.3" font-family="Helvetica Neue" font-size="14.00" fill="#333333">OrderProduct</text>
<polygon fill="#ffffff" stroke="transparent" points="24,-1990.5 24,-2027.5 192,-2027.5 192,-1990.5 24,-1990.5"/>
<polygon fill="none" stroke="#000000" points="24,-1990.5 24,-2027.5 192,-2027.5 192,-1990.5 24,-1990.5"/>
<text text-anchor="start" x="35" y="-2005.3" font-family="Helvetica Neue" font-size="14.00" fill="#333333">id (integer)</text>
<polygon fill="#ffffff" stroke="transparent" points="24,-1953.5 24,-1990.5 192,-1990.5 192,-1953.5 24,-1953.5"/>
<polygon fill="none" stroke="#000000" points="24,-1953.5 24,-1990.5 192,-1990.5 192,-1953.5 24,-1953.5"/>
<text text-anchor="start" x="35" y="-1968.3" font-family="Helvetica Neue" font-size="14.00" fill="#333333">order_id (integer)</text>
<polygon fill="#ffffff" stroke="transparent" points="24,-1916.5 24,-1953.5 192,-1953.5 192,-1916.5 24,-1916.5"/>
<polygon fill="none" stroke="#000000" points="24,-1916.5 24,-1953.5 192,-1953.5 192,-1916.5 24,-1916.5"/>
<text text-anchor="start" x="35" y="-1931.3" font-family="Helvetica Neue" font-size="14.00" fill="#333333">product_id (integer)</text>
<polygon fill="#ffffff" stroke="transparent" points="24,-1879.5 24,-1916.5 192,-1916.5 192,-1879.5 24,-1879.5"/>
<polygon fill="none" stroke="#000000" points="24,-1879.5 24,-1916.5 192,-1916.5 192,-1879.5 24,-1879.5"/>
<text text-anchor="start" x="35" y="-1894.3" font-family="Helvetica Neue" font-size="14.00" fill="#333333">quantity (integer)</text>
<polygon fill="#ffffff" stroke="transparent" points="24,-1842.5 24,-1879.5 192,-1879.5 192,-1842.5 24,-1842.5"/>
<polygon fill="none" stroke="#000000" points="24,-1842.5 24,-1879.5 192,-1879.5 192,-1842.5 24,-1842.5"/>
<text text-anchor="start" x="35" y="-1857.3" font-family="Helvetica Neue" font-size="14.00" fill="#333333">created_at (datetime)</text>
<polygon fill="#ffffff" stroke="transparent" points="24,-1805.5 24,-1842.5 192,-1842.5 192,-1805.5 24,-1805.5"/>
<polygon fill="none" stroke="#000000" points="24,-1805.5 24,-1842.5 192,-1842.5 192,-1805.5 24,-1805.5"/>
<text text-anchor="start" x="35" y="-1820.3" font-family="Helvetica Neue" font-size="14.00" fill="#333333">updated_at (datetime)</text>
</g>
</g>
</svg>
